<mxfile host="app.diagrams.net" modified="2024-04-26T17:50:39.275Z" agent="Mozilla/5.0 (Windows NT 10.0; Win64; x64) AppleWebKit/537.36 (KHTML, like Gecko) Chrome/124.0.0.0 Safari/537.36 Edg/124.0.0.0" version="24.3.0" etag="vT2Bx9Z7lL756kg4dz0N" type="github">
  <diagram name="Page-1" id="_ypBfY7sVnqD7OojRwaK">
    <mxGraphModel>
      <root>
        <mxCell id="0" />
        <mxCell id="1" parent="0" />
      </root>
    </mxGraphModel>
  </diagram>
</mxfile>
